<?xml version="1.0" encoding="UTF-8"?>
<svg xmlns="http://www.w3.org/2000/svg" xmlns:xlink="http://www.w3.org/1999/xlink" width="48px" height="48px" viewBox="0 0 48 48" version="1.1">
<g id="surface1">
<path style=" stroke:none;fill-rule:nonzero;fill:rgb(100%,100%,100%);fill-opacity:1;" d="M 23.679688 48.214844 C 15.785156 48.214844 8 48.214844 0.214844 48.214844 C 0.214844 32.214844 0.214844 16.214844 0.214844 0.214844 C 16.214844 0.214844 32.214844 0.214844 48.214844 0.214844 C 48.214844 16.214844 48.214844 32.214844 48.214844 48.214844 C 40.070312 48.214844 31.929688 48.214844 23.679688 48.214844 M 16.164062 35.199219 C 17.113281 34.789062 18.0625 34.382812 18.988281 33.984375 C 18.90625 33.730469 18.910156 33.632812 18.863281 33.601562 C 16.828125 32.21875 14.796875 30.828125 12.738281 29.480469 C 12.585938 29.382812 12.234375 29.59375 11.890625 29.789062 C 10.800781 32.25 9.703125 34.707031 8.628906 37.179688 C 8.515625 37.441406 8.546875 37.769531 8.511719 38.066406 C 8.804688 38.082031 9.144531 38.199219 9.386719 38.09375 C 11.601562 37.152344 13.800781 36.171875 16.164062 35.199219 M 25.726562 10.046875 C 24.035156 10.777344 22.34375 11.507812 20.652344 12.242188 C 19.546875 12.722656 19.398438 13.105469 19.886719 14.230469 C 23.230469 21.902344 26.574219 29.574219 29.921875 37.242188 C 30.375 38.285156 30.789062 38.453125 31.832031 38.011719 C 34.25 36.988281 36.65625 35.941406 39.074219 34.925781 C 39.976562 34.546875 40.226562 33.949219 39.828125 33.0625 C 39.367188 32.027344 38.90625 30.988281 38.453125 29.949219 C 35.5625 23.316406 32.675781 16.683594 29.785156 10.054688 C 29.253906 8.839844 28.871094 8.703125 27.640625 9.234375 C 27.054688 9.488281 26.46875 9.746094 25.726562 10.046875 M 18.035156 30.917969 C 21.089844 32.890625 24.144531 34.863281 27.199219 36.835938 C 27.269531 36.746094 27.335938 36.660156 27.40625 36.574219 C 27.371094 36.410156 27.363281 36.234375 27.300781 36.082031 C 25.570312 32.121094 23.832031 28.164062 22.113281 24.195312 C 21.839844 23.570312 21.464844 23.457031 20.851562 23.6875 C 18.699219 24.503906 16.527344 25.261719 14.386719 26.109375 C 13.949219 26.285156 13.328125 26.753906 13.324219 27.089844 C 13.324219 27.523438 13.769531 28.082031 14.175781 28.378906 C 15.382812 29.25 16.660156 30.019531 18.035156 30.917969 M 19.242188 17.539062 C 18.953125 16.894531 18.667969 16.246094 18.378906 15.601562 C 18.265625 15.613281 18.152344 15.625 18.039062 15.640625 C 16.863281 18.355469 15.691406 21.074219 14.492188 23.851562 C 14.792969 23.902344 14.910156 23.960938 14.992188 23.929688 C 16.820312 23.273438 18.65625 22.625 20.460938 21.90625 C 20.648438 21.832031 20.808594 21.25 20.71875 21.003906 C 20.300781 19.878906 19.789062 18.789062 19.242188 17.539062 Z M 19.242188 17.539062 "/>
<path style=" stroke:none;fill-rule:nonzero;fill:rgb(0.784314%,68.235294%,93.72549%);fill-opacity:1;" d="M 25.804688 10.023438 C 26.46875 9.746094 27.054688 9.488281 27.640625 9.234375 C 28.871094 8.703125 29.253906 8.839844 29.785156 10.054688 C 32.675781 16.683594 35.5625 23.316406 38.453125 29.949219 C 38.90625 30.988281 39.367188 32.027344 39.828125 33.0625 C 40.226562 33.949219 39.976562 34.546875 39.074219 34.925781 C 36.65625 35.941406 34.25 36.988281 31.832031 38.011719 C 30.789062 38.453125 30.375 38.285156 29.921875 37.242188 C 26.574219 29.574219 23.230469 21.902344 19.886719 14.230469 C 19.398438 13.105469 19.546875 12.722656 20.652344 12.242188 C 22.34375 11.507812 24.035156 10.777344 25.804688 10.023438 Z M 25.804688 10.023438 "/>
<path style=" stroke:none;fill-rule:nonzero;fill:rgb(100%,78.431373%,7.843137%);fill-opacity:1;" d="M 17.972656 30.875 C 16.660156 30.019531 15.382812 29.25 14.175781 28.378906 C 13.769531 28.082031 13.324219 27.523438 13.324219 27.089844 C 13.328125 26.753906 13.949219 26.285156 14.386719 26.109375 C 16.527344 25.261719 18.699219 24.503906 20.851562 23.6875 C 21.464844 23.457031 21.839844 23.570312 22.113281 24.195312 C 23.832031 28.164062 25.570312 32.121094 27.300781 36.082031 C 27.363281 36.234375 27.371094 36.410156 27.40625 36.574219 C 27.335938 36.660156 27.269531 36.746094 27.199219 36.835938 C 24.144531 34.863281 21.089844 32.890625 17.972656 30.875 Z M 17.972656 30.875 "/>
<path style=" stroke:none;fill-rule:nonzero;fill:rgb(92.941176%,9.803922%,28.627451%);fill-opacity:1;" d="M 16.003906 35.203125 C 13.800781 36.171875 11.601562 37.152344 9.386719 38.09375 C 9.144531 38.199219 8.804688 38.082031 8.511719 38.066406 C 8.546875 37.769531 8.515625 37.441406 8.628906 37.179688 C 9.703125 34.707031 10.800781 32.25 11.988281 29.769531 C 13.390625 31.570312 14.695312 33.386719 16.003906 35.203125 Z M 16.003906 35.203125 "/>
<path style=" stroke:none;fill-rule:nonzero;fill:rgb(92.941176%,10.196078%,29.019608%);fill-opacity:1;" d="M 19.273438 17.613281 C 19.789062 18.789062 20.300781 19.878906 20.71875 21.003906 C 20.808594 21.25 20.648438 21.832031 20.460938 21.90625 C 18.65625 22.625 16.820312 23.273438 14.992188 23.929688 C 14.910156 23.960938 14.792969 23.902344 14.492188 23.851562 C 15.691406 21.074219 16.863281 18.355469 18.039062 15.640625 C 18.152344 15.625 18.265625 15.613281 18.378906 15.601562 C 18.667969 16.246094 18.953125 16.894531 19.273438 17.613281 Z M 19.273438 17.613281 "/>
<path style=" stroke:none;fill-rule:nonzero;fill:rgb(77.647059%,12.54902%,21.176471%);fill-opacity:1;" d="M 16.082031 35.199219 C 14.695312 33.386719 13.390625 31.570312 12.027344 29.707031 C 12.234375 29.59375 12.585938 29.382812 12.738281 29.480469 C 14.796875 30.828125 16.828125 32.21875 18.863281 33.601562 C 18.910156 33.632812 18.90625 33.730469 18.988281 33.984375 C 18.0625 34.382812 17.113281 34.789062 16.082031 35.199219 Z M 16.082031 35.199219 "/>
</g>
</svg>
