<?xml version="1.0" standalone="no"?>
<!DOCTYPE svg PUBLIC "-//W3C//DTD SVG 20010904//EN"
 "http://www.w3.org/TR/2001/REC-SVG-20010904/DTD/svg10.dtd">
<svg version="1.0" xmlns="http://www.w3.org/2000/svg"
 width="25.000000pt" height="25.000000pt" viewBox="0 0 25.000000 25.000000"
 preserveAspectRatio="xMidYMid meet">

<g transform="translate(0.000000,25.000000) scale(0.100000,-0.100000)"
fill="#000000" stroke="none">
<path d="M30 175 c0 -9 8 -18 18 -21 56 -18 63 -44 15 -56 -20 -5 -33 -15 -33
-24 0 -13 8 -15 43 -10 52 7 52 7 105 0 23 -3 42 -2 42 3 0 15 -23 33 -41 33
-42 0 -29 46 14 52 12 2 23 11 25 21 3 16 -1 18 -34 12 -21 -3 -43 -10 -48
-15 -6 -6 -14 -6 -22 1 -6 5 -28 12 -48 14 -28 4 -36 1 -36 -10z"/>
<path d="M166 133 c-11 -11 -6 -23 9 -23 8 0 15 4 15 9 0 13 -16 22 -24 14z"/>
</g>
</svg>
