<?xml version="1.0" encoding="UTF-8"?>
<svg xmlns="http://www.w3.org/2000/svg" xmlns:xlink="http://www.w3.org/1999/xlink" width="80px" height="80px" viewBox="0 0 80 80" version="1.1">
<g id="surface1">
<path style=" stroke:none;fill-rule:nonzero;fill:rgb(0%,0%,0%);fill-opacity:1;" d="M 0 40 L 0 80 L 80 80 L 80 0 L 0 0 Z M 27.960938 39.839844 L 27.898438 47.898438 L 26.261719 47.960938 L 24.601562 48.019531 L 24.601562 34.601562 L 23 34.601562 L 23 31.800781 L 28 31.800781 Z M 19.539062 36.699219 C 21.339844 37.460938 22.601562 39.421875 22.761719 41.738281 L 22.859375 43.179688 L 18.78125 43.160156 L 14.699219 43.160156 L 14.761719 43.621094 C 14.878906 44.679688 16.421875 45.558594 17.71875 45.300781 C 18.101562 45.238281 18.699219 44.921875 19.058594 44.601562 L 19.71875 44.039062 L 21.058594 44.359375 C 21.800781 44.539062 22.398438 44.78125 22.398438 44.898438 C 22.398438 45.441406 21.121094 47.019531 20.238281 47.519531 C 18.921875 48.300781 16.320312 48.441406 14.921875 47.820312 C 12.820312 46.898438 11.800781 45.558594 11.359375 43.21875 C 10.960938 41.101562 11.941406 38.578125 13.621094 37.378906 C 15.28125 36.199219 17.679688 35.921875 19.539062 36.699219 Z M 37.738281 36.699219 C 38.78125 37.140625 39.960938 38.320312 40.460938 39.398438 C 40.679688 39.898438 40.921875 40.898438 40.980469 41.640625 C 41.121094 42.941406 41.101562 42.980469 40.601562 43.078125 C 40.320312 43.121094 38.519531 43.160156 36.601562 43.140625 C 33.421875 43.121094 33.101562 43.160156 33.039062 43.480469 C 32.941406 44.019531 33.558594 44.800781 34.359375 45.140625 C 35.378906 45.558594 36.640625 45.339844 37.378906 44.601562 L 37.960938 44 L 39.28125 44.339844 C 40 44.519531 40.601562 44.761719 40.601562 44.878906 C 40.578125 45.398438 39.640625 46.71875 38.898438 47.21875 C 37.761719 48 36.640625 48.261719 34.941406 48.160156 C 33.160156 48.039062 32.160156 47.558594 30.960938 46.21875 C 29.921875 45.078125 29.601562 44.101562 29.601562 42.140625 C 29.601562 40 30.378906 38.421875 32.019531 37.28125 C 33.578125 36.199219 35.960938 35.960938 37.738281 36.699219 Z M 59.839844 36.398438 C 60.261719 36.519531 60.859375 36.839844 61.199219 37.121094 L 61.800781 37.640625 L 61.800781 37.121094 C 61.800781 36.601562 61.800781 36.601562 63.5 36.601562 L 65.199219 36.601562 L 65.199219 44.980469 L 65.960938 45.039062 L 66.699219 45.101562 L 66.699219 47.898438 L 64.359375 47.960938 L 62 48.019531 L 62 47.398438 C 62 46.699219 61.800781 46.640625 61.28125 47.21875 C 60.421875 48.179688 58.699219 48.480469 56.921875 47.980469 C 55.679688 47.640625 54.101562 45.921875 53.679688 44.480469 C 52.300781 39.679688 55.660156 35.238281 59.839844 36.398438 Z M 68.238281 36.441406 C 68.800781 36.878906 68.859375 37.539062 68.421875 37.980469 C 67.898438 38.5 67.5 38.5 67 38 C 66.480469 37.480469 66.5 36.898438 67.039062 36.519531 C 67.578125 36.140625 67.820312 36.121094 68.238281 36.441406 Z M 45.261719 37.738281 C 46.261719 41.558594 47.019531 44.28125 47.179688 44.558594 C 47.320312 44.820312 47.421875 44.679688 47.601562 44 C 47.960938 42.539062 48.820312 39.398438 49.21875 37.941406 L 49.621094 36.601562 L 53.160156 36.601562 L 52.300781 39.238281 C 51.820312 40.699219 51 43.238281 50.460938 44.898438 L 49.480469 47.898438 L 47.28125 47.960938 L 45.058594 48.019531 L 44.660156 46.660156 C 44.441406 45.921875 43.820312 44 43.300781 42.398438 C 42.78125 40.800781 42.140625 38.839844 41.878906 38.039062 L 41.441406 36.601562 L 44.960938 36.601562 Z M 45.261719 37.738281 "/>
<path style=" stroke:none;fill-rule:nonzero;fill:rgb(0%,0%,0%);fill-opacity:1;" d="M 16 39.21875 C 15.460938 39.441406 14.820312 40.160156 14.800781 40.539062 C 14.800781 40.738281 15.421875 40.800781 17.199219 40.800781 L 19.621094 40.800781 L 19.300781 40.199219 C 18.761719 39.160156 17.28125 38.71875 16 39.21875 Z M 16 39.21875 "/>
<path style=" stroke:none;fill-rule:nonzero;fill:rgb(0%,0%,0%);fill-opacity:1;" d="M 33.679688 39.679688 C 33.300781 40.058594 33 40.460938 33 40.578125 C 33 40.71875 33.78125 40.800781 35.398438 40.800781 L 37.78125 40.800781 L 37.621094 40.339844 C 37.359375 39.621094 36.261719 39 35.261719 39 C 34.5 39 34.238281 39.121094 33.679688 39.679688 Z M 33.679688 39.679688 "/>
<path style=" stroke:none;fill-rule:nonzero;fill:rgb(0%,0%,0%);fill-opacity:1;" d="M 57.898438 39.800781 C 55.859375 41.140625 56.300781 44.339844 58.601562 45 C 61.339844 45.78125 63.078125 42.039062 60.921875 40.039062 C 60.058594 39.261719 58.859375 39.160156 57.898438 39.800781 Z M 57.898438 39.800781 "/>
<path style=" stroke:none;fill-rule:nonzero;fill:rgb(0%,0%,0%);fill-opacity:1;" d="M 67.078125 36.878906 C 66.878906 37.421875 67.101562 37.898438 67.578125 37.960938 C 67.859375 38 68 37.960938 67.921875 37.820312 C 67.839844 37.71875 67.640625 37.679688 67.460938 37.738281 C 67.199219 37.839844 67.160156 37.761719 67.238281 37.238281 C 67.339844 36.558594 67.261719 36.398438 67.078125 36.878906 Z M 67.078125 36.878906 "/>
<path style=" stroke:none;fill-rule:nonzero;fill:rgb(0%,0%,0%);fill-opacity:1;" d="M 67.960938 37.101562 C 68.058594 37.660156 68.398438 37.980469 68.398438 37.519531 C 68.398438 37.101562 68.179688 36.601562 68 36.601562 C 67.921875 36.601562 67.898438 36.820312 67.960938 37.101562 Z M 67.960938 37.101562 "/>
</g>
</svg>
