<?xml version="1.0" encoding="UTF-8"?>
<svg xmlns="http://www.w3.org/2000/svg" xmlns:xlink="http://www.w3.org/1999/xlink" width="60px" height="60px" viewBox="0 0 60 60" version="1.1">
<g id="surface1">
<path style=" stroke:none;fill-rule:evenodd;fill:rgb(0%,0%,0%);fill-opacity:1;" d="M 32.878906 7.5 C 31.28125 7.5 29.984375 8.773438 29.984375 10.34375 L 29.984375 47.101562 C 29.984375 48.671875 31.28125 49.941406 32.882812 49.941406 L 41.152344 49.941406 C 42.753906 49.941406 44.046875 48.667969 44.046875 47.101562 L 44.046875 10.34375 C 44.050781 8.773438 42.753906 7.5 41.152344 7.5 Z M 17.28125 7.703125 C 16.496094 7.703125 15.78125 8.011719 15.261719 8.511719 C 15.261719 8.515625 15.253906 8.511719 15.253906 8.503906 C 15.253906 8.5 15.25 8.496094 15.246094 8.503906 L 15.160156 8.613281 C 15.027344 8.753906 14.914062 8.90625 14.8125 9.066406 C 14.539062 9.425781 14.296875 9.808594 14.09375 10.207031 L 1.007812 35.898438 L 0.265625 37.535156 L 0.148438 37.796875 C 0.148438 37.800781 0.148438 37.800781 0.152344 37.800781 C 0.0507812 38.097656 0 38.410156 0.00390625 38.722656 L 0 47.179688 C 0.015625 48.753906 1.304688 50.015625 2.878906 50 L 11.519531 50 C 13.09375 50.015625 14.382812 48.753906 14.398438 47.179688 L 14.398438 33.078125 C 14.398438 26.851562 19.558594 21.800781 25.921875 21.800781 C 27.492188 21.820312 28.785156 20.554688 28.800781 18.984375 L 28.800781 10.523438 C 28.785156 8.949219 27.492188 7.6875 25.921875 7.703125 Z M 45.601562 42.953125 C 45.601562 39.058594 48.824219 35.902344 52.800781 35.902344 C 56.773438 35.902344 60 39.058594 60 42.953125 C 60 46.839844 56.773438 50 52.800781 50 C 48.824219 50 45.601562 46.84375 45.601562 42.949219 Z M 45.601562 42.953125 "/>
</g>
</svg>
