<?xml version="1.0" encoding="UTF-8"?>
<svg xmlns="http://www.w3.org/2000/svg" xmlns:xlink="http://www.w3.org/1999/xlink" width="80px" height="23px" viewBox="0 0 80 23" version="1.1">
<g id="surface1">
<path style=" stroke:none;fill-rule:nonzero;fill:rgb(0%,0%,0%);fill-opacity:1;" d="M 4.332031 11.535156 L 4.332031 19.390625 L 6.667969 19.390625 L 6.667969 12.371094 L 15.300781 12.371094 L 15.398438 15.777344 L 15.5 19.222656 L 16.601562 19.324219 L 17.667969 19.421875 L 17.667969 3.644531 L 16.601562 3.746094 L 15.5 3.84375 L 15.398438 6.921875 L 15.300781 10.027344 L 6.667969 10.027344 L 6.667969 3.675781 L 4.332031 3.675781 Z M 4.332031 11.535156 "/>
<path style=" stroke:none;fill-rule:nonzero;fill:rgb(0%,0%,0%);fill-opacity:1;" d="M 20 11.535156 L 20 19.390625 L 23.933594 19.390625 C 28.566406 19.390625 30 19.054688 31.132812 17.683594 C 31.832031 16.882812 32 16.3125 32 14.875 C 32 13.304688 31.867188 12.9375 30.964844 12.035156 L 29.898438 11 L 30.667969 10.195312 C 31.699219 9.09375 31.734375 6.71875 30.765625 5.414062 C 29.800781 4.078125 28.300781 3.710938 23.933594 3.710938 L 20 3.675781 Z M 28.699219 6.652344 C 29.5 7.621094 29.5 8.425781 28.699219 9.394531 C 28.132812 10.097656 27.734375 10.195312 25.199219 10.328125 L 22.332031 10.429688 L 22.332031 5.617188 L 25.199219 5.714844 C 27.734375 5.851562 28.132812 5.949219 28.699219 6.652344 Z M 29.035156 12.972656 C 30 13.808594 30.035156 15.476562 29.066406 16.449219 C 28.464844 17.050781 27.867188 17.214844 25.332031 17.316406 L 22.332031 17.449219 L 22.332031 12.371094 L 25.300781 12.371094 C 27.667969 12.371094 28.398438 12.503906 29.035156 12.972656 Z M 29.035156 12.972656 "/>
<path style=" stroke:none;fill-rule:nonzero;fill:rgb(0%,0%,0%);fill-opacity:1;" d="M 38.367188 4.414062 C 38.199219 4.847656 36.867188 8.324219 35.367188 12.136719 C 33.867188 15.980469 32.667969 19.1875 32.667969 19.253906 C 32.667969 19.324219 33.199219 19.390625 33.832031 19.390625 C 34.832031 19.390625 35.066406 19.253906 35.464844 18.21875 L 35.964844 17.050781 L 43.667969 17.050781 L 44.132812 18.21875 C 44.566406 19.253906 44.765625 19.390625 45.867188 19.390625 C 46.699219 19.390625 47.035156 19.253906 46.898438 18.953125 C 46.800781 18.753906 45.5 15.410156 44 11.535156 C 42.5 7.65625 41.199219 4.3125 41.101562 4.078125 C 41 3.878906 40.398438 3.675781 39.800781 3.675781 C 38.898438 3.675781 38.566406 3.84375 38.367188 4.414062 Z M 41.464844 11.066406 L 42.898438 14.875 L 39.898438 14.976562 C 38.265625 15.011719 36.867188 15.011719 36.800781 14.941406 C 36.734375 14.910156 37.265625 13.339844 37.964844 11.5 C 38.667969 9.695312 39.332031 7.890625 39.464844 7.554688 C 39.566406 7.222656 39.765625 6.988281 39.867188 7.085938 C 39.933594 7.1875 40.667969 8.992188 41.464844 11.066406 Z M 41.464844 11.066406 "/>
<path style=" stroke:none;fill-rule:nonzero;fill:rgb(0%,0%,0%);fill-opacity:1;" d="M 48.667969 11.566406 L 48.667969 19.457031 L 52.601562 19.355469 C 56.101562 19.222656 56.667969 19.121094 58 18.320312 C 60.035156 17.148438 61.035156 15.277344 61.265625 12.335938 C 61.464844 9.292969 60.867188 7.222656 59.332031 5.683594 C 57.800781 4.144531 56.066406 3.675781 51.867188 3.675781 L 48.667969 3.675781 Z M 55.300781 5.984375 C 56.234375 6.183594 57.132812 6.652344 57.800781 7.320312 C 58.765625 8.289062 58.832031 8.558594 58.933594 11.132812 C 59 13.40625 58.933594 14.039062 58.367188 14.941406 C 57.464844 16.414062 56.035156 17.050781 53.300781 17.285156 L 51 17.484375 L 51 5.683594 L 52.433594 5.683594 C 53.199219 5.714844 54.5 5.851562 55.300781 5.984375 Z M 55.300781 5.984375 "/>
<path style=" stroke:none;fill-rule:nonzero;fill:rgb(0%,0%,0%);fill-opacity:1;" d="M 67.035156 4.414062 C 64.566406 10.699219 61.332031 19.121094 61.332031 19.222656 C 61.332031 19.324219 61.867188 19.390625 62.5 19.390625 C 63.5 19.390625 63.734375 19.253906 64.132812 18.21875 L 64.632812 17.050781 L 72.332031 17.050781 L 72.800781 18.21875 C 73.234375 19.253906 73.433594 19.390625 74.535156 19.390625 C 75.367188 19.390625 75.699219 19.253906 75.566406 18.953125 C 75.5 18.753906 74.566406 16.378906 73.5 13.707031 C 72.464844 11.03125 71.167969 7.6875 70.601562 6.25 C 69.632812 3.746094 69.601562 3.675781 68.464844 3.675781 C 67.601562 3.675781 67.234375 3.84375 67.035156 4.414062 Z M 70.132812 11.132812 L 71.601562 15.042969 L 68.433594 15.042969 C 65.535156 15.042969 65.300781 14.976562 65.5 14.441406 C 65.632812 14.140625 66.167969 12.738281 66.667969 11.367188 C 68.234375 7.222656 68.332031 6.921875 68.5 7.085938 C 68.566406 7.152344 69.300781 8.992188 70.132812 11.132812 Z M 70.132812 11.132812 "/>
</g>
</svg>
