<?xml version="1.0" encoding="UTF-8"?>
<svg xmlns="http://www.w3.org/2000/svg" xmlns:xlink="http://www.w3.org/1999/xlink" width="48px" height="px" viewBox="0 0 48 51" version="1.1">
<g id="surface1">
<path style=" stroke:none;fill-rule:evenodd;fill:rgb(19.607843%,76.470588%,100%);fill-opacity:1;" d="M 22.5 50.601562 C 22.777344 50.757812 23.023438 50.832031 23.253906 50.886719 C 23.574219 50.96875 23.859375 50.996094 24.136719 51 C 24.730469 51 25.285156 50.882812 26.101562 50.414062 L 45.671875 39.789062 C 47.140625 38.953125 47.78125 38.074219 47.78125 36.398438 L 47.78125 14.777344 C 47.78125 13.101562 46.75 12.351562 45.277344 11.515625 L 25.609375 0.851562 C 25.460938 0.761719 25.304688 0.683594 25.140625 0.621094 C 24.839844 0.511719 24.523438 0.457031 24.203125 0.460938 C 23.707031 0.460938 23.21875 0.460938 22.332031 0.96875 L 3.128906 11.28125 C 1.664062 12.117188 0.21875 13.101562 0.21875 14.78125 L 0.257812 36.492188 C 0.257812 38.167969 1.484375 39.257812 2.960938 40.097656 Z M 22.5 50.601562 "/>
<path style=" stroke:none;fill-rule:evenodd;fill:rgb(100%,100%,100%);fill-opacity:1;" d="M 29.988281 17.59375 L 29.988281 24.84375 L 31.507812 24.84375 L 31.507812 18.625 L 34.164062 23.8125 C 34.601562 24.65625 34.996094 24.9375 35.59375 24.9375 C 36.238281 24.9375 36.609375 24.539062 36.609375 23.648438 L 36.609375 16.402344 L 35.085938 16.402344 L 35.085938 22.597656 L 32.433594 17.429688 C 32.019531 16.613281 31.578125 16.332031 31.003906 16.332031 C 30.378906 16.308594 29.988281 16.707031 29.988281 17.59375 Z M 25.074219 24.9375 C 27.65625 24.9375 28.394531 23.671875 28.394531 20.632812 C 28.394531 17.570312 27.65625 16.332031 25.074219 16.332031 C 22.46875 16.308594 21.730469 17.570312 21.730469 20.632812 C 21.730469 23.695312 22.46875 24.9375 25.074219 24.9375 Z M 23.460938 20.632812 C 23.460938 18.90625 23.503906 17.734375 25.074219 17.734375 C 26.644531 17.734375 26.6875 18.902344 26.6875 20.632812 C 26.6875 22.363281 26.644531 23.53125 25.074219 23.53125 C 23.480469 23.507812 23.460938 22.339844 23.460938 20.632812 Z M 14.324219 16.542969 L 14.324219 24.84375 L 16.007812 24.84375 L 16.007812 21.617188 C 16.308594 21.640625 16.675781 21.660156 17.023438 21.660156 L 18.730469 24.839844 L 20.667969 24.839844 L 18.753906 21.449219 C 19.746094 21.148438 20.34375 20.445312 20.34375 18.949219 C 20.34375 16.660156 18.84375 16.308594 17 16.308594 C 16.03125 16.308594 15.039062 16.402344 14.324219 16.542969 Z M 16.007812 20.257812 L 16.007812 17.710938 C 16.355469 17.664062 16.746094 17.640625 17.070312 17.640625 C 18.292969 17.640625 18.707031 18.015625 18.707031 18.949219 C 18.707031 20.027344 18.082031 20.308594 17.046875 20.308594 C 16.722656 20.308594 16.398438 20.308594 16.054688 20.257812 Z M 10.816406 24.84375 L 12.523438 24.84375 L 12.523438 16.402344 L 10.816406 16.402344 Z M 25.074219 24.9375 C 25.074219 24.9375 22.46875 24.9375 25.074219 24.9375 Z M 25.230469 31.546875 C 25.230469 34.339844 25.839844 35.554688 28.324219 35.554688 C 28.957031 35.554688 29.523438 35.484375 30.019531 35.390625 L 29.953125 34.867188 C 29.523438 34.933594 29.09375 34.980469 28.664062 34.980469 C 26.222656 34.980469 25.90625 33.859375 25.90625 31.546875 C 25.90625 29.234375 26.179688 28.109375 28.664062 28.109375 C 29.09375 28.109375 29.546875 28.179688 29.953125 28.226562 L 30.019531 27.675781 C 29.460938 27.570312 28.894531 27.515625 28.324219 27.515625 C 25.839844 27.539062 25.230469 28.753906 25.230469 31.546875 Z M 20.800781 27.996094 L 17.976562 35.484375 L 18.65625 35.484375 L 19.515625 33.148438 L 23.015625 33.148438 L 23.875 35.484375 L 24.574219 35.484375 L 21.773438 27.996094 C 21.660156 27.699219 21.5 27.539062 21.277344 27.539062 C 21.074219 27.539062 20.9375 27.675781 20.800781 27.996094 Z M 21.277344 28.429688 L 22.8125 32.597656 L 19.71875 32.597656 Z M 35.734375 27.628906 L 32.144531 31.269531 L 32.144531 27.628906 L 31.488281 27.628906 L 31.488281 35.484375 L 32.144531 35.484375 L 32.144531 31.613281 L 35.804688 35.484375 L 36.664062 35.484375 L 32.800781 31.429688 L 36.550781 27.628906 Z M 15.898438 27.628906 L 15.898438 31.179688 L 11.539062 31.179688 L 11.539062 27.628906 L 10.882812 27.628906 L 10.882812 35.484375 L 11.539062 35.484375 L 11.539062 31.75 L 15.921875 31.75 L 15.921875 35.484375 L 16.578125 35.484375 L 16.578125 27.628906 Z M 15.898438 27.628906 "/>
</g>
</svg>
