<?xml version="1.0" encoding="UTF-8"?>
<svg xmlns="http://www.w3.org/2000/svg" xmlns:xlink="http://www.w3.org/1999/xlink" width="80px" height="28px" viewBox="0 0 78 28" version="1.1">
<g id="surface1">
<path style=" stroke:none;fill-rule:nonzero;fill:rgb(0%,0%,0%);fill-opacity:1;" d="M 43.621094 8.738281 L 43.621094 17.472656 L 46.3125 17.472656 L 46.3125 0 L 43.621094 0 Z M 43.621094 8.738281 "/>
<path style=" stroke:none;fill-rule:nonzero;fill:rgb(0%,0%,0%);fill-opacity:1;" d="M 52.066406 0.101562 C 51.664062 0.234375 51.25 0.609375 51.050781 1.015625 C 50.929688 1.269531 50.90625 1.367188 50.90625 1.769531 C 50.90625 2.1875 50.921875 2.265625 51.074219 2.574219 C 51.265625 2.960938 51.492188 3.1875 51.898438 3.378906 C 52.132812 3.488281 52.25 3.511719 52.632812 3.511719 C 53.050781 3.511719 53.128906 3.496094 53.433594 3.339844 C 54.0625 3.027344 54.386719 2.496094 54.386719 1.769531 C 54.386719 1.265625 54.25 0.90625 53.941406 0.570312 C 53.46875 0.0625 52.734375 -0.117188 52.066406 0.101562 Z M 52.066406 0.101562 "/>
<path style=" stroke:none;fill-rule:nonzero;fill:rgb(0%,0%,0%);fill-opacity:1;" d="M 73.613281 3.136719 C 73.507812 3.167969 73.328125 3.28125 73.222656 3.386719 C 72.835938 3.777344 72.820312 4.421875 73.203125 4.820312 C 73.65625 5.3125 74.527344 5.191406 74.839844 4.585938 C 74.941406 4.386719 74.941406 3.863281 74.839844 3.664062 C 74.75 3.496094 74.53125 3.269531 74.367188 3.1875 C 74.207031 3.105469 73.824219 3.074219 73.613281 3.136719 Z M 73.613281 3.136719 "/>
<path style=" stroke:none;fill-rule:nonzero;fill:rgb(0%,0%,0%);fill-opacity:1;" d="M 33.390625 5.894531 C 32.132812 6.085938 30.851562 6.769531 30.011719 7.671875 C 27.808594 10.042969 28.046875 14.085938 30.503906 16.089844 C 31.226562 16.675781 31.886719 17.011719 32.789062 17.253906 C 33.46875 17.433594 34.78125 17.480469 35.546875 17.347656 C 36.796875 17.136719 37.71875 16.65625 38.59375 15.761719 C 38.878906 15.472656 38.910156 15.414062 38.847656 15.351562 C 38.453125 14.980469 37.109375 13.835938 37.070312 13.835938 C 37.046875 13.835938 37.019531 13.855469 37.019531 13.882812 C 37.019531 13.90625 36.867188 14.0625 36.679688 14.21875 C 36.277344 14.554688 35.652344 14.875 35.21875 14.96875 C 34.785156 15.0625 33.917969 15.050781 33.519531 14.949219 C 32.464844 14.667969 31.675781 13.851562 31.371094 12.730469 C 31.21875 12.15625 31.21875 11.109375 31.371094 10.539062 C 31.765625 9.082031 32.894531 8.199219 34.378906 8.199219 C 35.265625 8.199219 36.003906 8.5 36.609375 9.105469 C 36.851562 9.351562 37 9.464844 37.039062 9.4375 C 37.15625 9.347656 38.773438 8.03125 38.816406 7.988281 C 38.882812 7.925781 38.378906 7.367188 37.914062 6.988281 C 37.398438 6.574219 36.644531 6.191406 35.976562 6.015625 C 35.542969 5.898438 35.34375 5.878906 34.582031 5.863281 C 34.09375 5.855469 33.554688 5.867188 33.390625 5.894531 Z M 33.390625 5.894531 "/>
<path style=" stroke:none;fill-rule:nonzero;fill:rgb(0%,0%,0%);fill-opacity:1;" d="M 62.8125 5.925781 C 60.632812 6.320312 58.910156 7.773438 58.246094 9.773438 C 57.214844 12.894531 58.890625 16.207031 61.992188 17.1875 C 63.378906 17.621094 65.015625 17.554688 66.335938 17.007812 C 67.605469 16.480469 68.675781 15.480469 69.285156 14.257812 C 69.636719 13.558594 69.875 12.503906 69.875 11.671875 C 69.875 8.773438 67.859375 6.390625 65 5.917969 C 64.410156 5.828125 63.339844 5.828125 62.8125 5.925781 Z M 64.792969 8.277344 C 65.847656 8.527344 66.660156 9.363281 66.992188 10.53125 C 67.136719 11.058594 67.148438 12.128906 67.011719 12.683594 C 66.898438 13.140625 66.640625 13.683594 66.351562 14.046875 C 66.070312 14.40625 65.46875 14.820312 65.011719 14.96875 C 64.542969 15.121094 63.589844 15.15625 63.109375 15.046875 C 61.992188 14.785156 61.164062 13.9375 60.824219 12.722656 C 60.683594 12.210938 60.671875 11.175781 60.800781 10.648438 C 61.101562 9.425781 61.929688 8.558594 63.070312 8.277344 C 63.457031 8.183594 64.390625 8.183594 64.792969 8.277344 Z M 64.792969 8.277344 "/>
<path style=" stroke:none;fill-rule:nonzero;fill:rgb(0%,0%,0%);fill-opacity:1;" d="M 4.390625 6.101562 C 3.011719 6.273438 1.78125 6.898438 1.070312 7.804688 C 0.574219 8.429688 0.183594 9.402344 0.0546875 10.320312 C 0.0195312 10.570312 0 11.980469 0 14.121094 L 0 17.527344 L 2.636719 17.527344 L 2.652344 14.050781 C 2.671875 10.695312 2.675781 10.566406 2.777344 10.1875 C 3.050781 9.203125 3.53125 8.714844 4.414062 8.527344 C 5.664062 8.261719 6.78125 8.671875 7.226562 9.566406 C 7.550781 10.207031 7.535156 10.039062 7.554688 13.921875 L 7.570312 17.472656 L 10.261719 17.472656 L 10.242188 13.898438 C 10.226562 10.421875 10.222656 10.308594 10.109375 9.820312 C 9.886719 8.808594 9.542969 8.113281 8.96875 7.496094 C 8.109375 6.578125 7.003906 6.132812 5.460938 6.078125 C 5.097656 6.0625 4.617188 6.078125 4.390625 6.101562 Z M 4.390625 6.101562 "/>
<path style=" stroke:none;fill-rule:nonzero;fill:rgb(0%,0%,0%);fill-opacity:1;" d="M 14.285156 9.746094 C 14.300781 13.359375 14.304688 13.460938 14.410156 13.871094 C 14.914062 15.796875 15.960938 16.871094 17.777344 17.320312 C 18.335938 17.464844 19.570312 17.515625 20.222656 17.421875 C 22.175781 17.15625 23.558594 16.105469 24.148438 14.4375 C 24.5 13.429688 24.5 13.4375 24.5 9.558594 L 24.5 6.074219 L 21.859375 6.074219 L 21.832031 9.609375 C 21.800781 13.511719 21.8125 13.40625 21.464844 14.054688 C 21.109375 14.742188 20.367188 15.117188 19.375 15.117188 C 18.363281 15.117188 17.632812 14.722656 17.261719 13.980469 C 16.941406 13.34375 16.945312 13.378906 16.925781 9.542969 L 16.90625 6.046875 L 14.265625 6.046875 Z M 14.285156 9.746094 "/>
<path style=" stroke:none;fill-rule:nonzero;fill:rgb(0%,0%,0%);fill-opacity:1;" d="M 51.289062 11.761719 L 51.289062 17.472656 L 53.980469 17.472656 L 53.980469 6.046875 L 51.289062 6.046875 Z M 51.289062 11.761719 "/>
<path style=" stroke:none;fill-rule:nonzero;fill:rgb(0%,0%,0%);fill-opacity:1;" d="M 11.664062 19.457031 C 11.644531 19.472656 11.628906 20.28125 11.628906 21.25 L 11.628906 23.019531 L 11.375 22.738281 C 11.007812 22.335938 10.71875 22.214844 10.105469 22.214844 C 9.679688 22.214844 9.585938 22.230469 9.339844 22.359375 C 8.578125 22.730469 8.148438 23.648438 8.328125 24.519531 C 8.5 25.355469 9.058594 25.910156 9.875 26.042969 C 10.457031 26.140625 11.175781 25.835938 11.5 25.359375 C 11.578125 25.253906 11.65625 25.160156 11.667969 25.160156 C 11.679688 25.160156 11.675781 25.34375 11.660156 25.570312 L 11.625 25.980469 L 12.035156 25.980469 L 12.035156 19.421875 L 11.867188 19.421875 C 11.769531 19.421875 11.679688 19.4375 11.664062 19.457031 Z M 10.699219 22.613281 C 11.410156 22.878906 11.816406 23.726562 11.609375 24.535156 C 11.414062 25.300781 10.921875 25.6875 10.15625 25.6875 C 9.71875 25.6875 9.390625 25.554688 9.105469 25.253906 C 8.820312 24.957031 8.710938 24.632812 8.710938 24.109375 C 8.710938 23.738281 8.734375 23.597656 8.824219 23.394531 C 9.085938 22.828125 9.527344 22.546875 10.15625 22.550781 C 10.363281 22.550781 10.609375 22.582031 10.699219 22.613281 Z M 10.699219 22.613281 "/>
<path style=" stroke:none;fill-rule:nonzero;fill:rgb(0%,0%,0%);fill-opacity:1;" d="M 36.105469 22.703125 L 36.105469 25.980469 L 36.460938 25.980469 L 36.460938 19.421875 L 36.105469 19.421875 Z M 36.105469 22.703125 "/>
<path style=" stroke:none;fill-rule:nonzero;fill:rgb(0%,0%,0%);fill-opacity:1;" d="M 52.050781 22.730469 L 52.050781 26.039062 L 52.21875 26.023438 L 52.382812 26.007812 L 52.40625 24.75 C 52.429688 23.566406 52.4375 23.480469 52.546875 23.25 C 52.902344 22.527344 53.949219 22.308594 54.503906 22.84375 C 54.753906 23.085938 54.792969 23.355469 54.792969 24.734375 L 54.792969 25.980469 L 55.210938 25.980469 L 55.183594 24.632812 C 55.160156 23.15625 55.128906 22.992188 54.839844 22.632812 C 54.515625 22.234375 53.894531 22.085938 53.296875 22.265625 C 53.054688 22.332031 52.9375 22.410156 52.699219 22.648438 L 52.40625 22.949219 L 52.40625 19.421875 L 52.050781 19.421875 Z M 52.050781 22.730469 "/>
<path style=" stroke:none;fill-rule:nonzero;fill:rgb(0%,0%,0%);fill-opacity:1;" d="M 69.199219 19.457031 C 69.179688 19.472656 69.164062 20.949219 69.164062 22.738281 L 69.164062 25.980469 L 69.570312 25.980469 L 69.570312 19.421875 L 69.402344 19.421875 C 69.304688 19.421875 69.214844 19.4375 69.199219 19.457031 Z M 69.199219 19.457031 "/>
<path style=" stroke:none;fill-rule:nonzero;fill:rgb(0%,0%,0%);fill-opacity:1;" d="M 26.40625 21.316406 L 26.40625 22.292969 L 26.125 22.292969 C 25.851562 22.292969 25.847656 22.292969 25.847656 22.445312 C 25.847656 22.597656 25.851562 22.597656 26.125 22.597656 L 26.40625 22.597656 L 26.40625 23.972656 C 26.40625 25.292969 26.410156 25.351562 26.523438 25.570312 C 26.675781 25.875 26.847656 25.992188 27.183594 26.023438 C 27.492188 26.046875 27.75 25.976562 27.949219 25.820312 C 28.113281 25.6875 28.113281 25.652344 27.949219 25.546875 C 27.824219 25.464844 27.8125 25.464844 27.703125 25.570312 C 27.558594 25.710938 27.207031 25.761719 27.046875 25.671875 C 26.808594 25.550781 26.792969 25.425781 26.773438 23.96875 L 26.757812 22.597656 L 27.828125 22.597656 L 27.828125 22.292969 L 26.761719 22.292969 L 26.761719 20.34375 L 26.40625 20.34375 Z M 26.40625 21.316406 "/>
<path style=" stroke:none;fill-rule:nonzero;fill:rgb(0%,0%,0%);fill-opacity:1;" d="M 14.492188 20.523438 C 14.320312 20.789062 14.570312 21.097656 14.851562 20.96875 C 15.128906 20.839844 15.03125 20.394531 14.726562 20.394531 C 14.625 20.394531 14.546875 20.4375 14.492188 20.523438 Z M 14.492188 20.523438 "/>
<path style=" stroke:none;fill-rule:nonzero;fill:rgb(0%,0%,0%);fill-opacity:1;" d="M 23.359375 20.496094 C 23.304688 20.554688 23.257812 20.644531 23.257812 20.703125 C 23.257812 20.832031 23.429688 21.011719 23.550781 21.011719 C 23.710938 21.011719 23.867188 20.863281 23.867188 20.707031 C 23.867188 20.425781 23.558594 20.296875 23.359375 20.496094 Z M 23.359375 20.496094 "/>
<path style=" stroke:none;fill-rule:nonzero;fill:rgb(0%,0%,0%);fill-opacity:1;" d="M 18.449219 22.265625 C 17.9375 22.425781 17.539062 22.785156 17.304688 23.296875 C 17.203125 23.503906 17.1875 23.632812 17.1875 24.109375 C 17.1875 24.613281 17.203125 24.703125 17.328125 24.964844 C 17.398438 25.125 17.554688 25.359375 17.671875 25.488281 C 18.378906 26.261719 19.742188 26.191406 20.367188 25.351562 L 20.527344 25.136719 L 20.503906 25.910156 C 20.492188 26.648438 20.484375 26.691406 20.335938 26.980469 C 20.222656 27.214844 20.125 27.320312 19.9375 27.441406 C 19.691406 27.589844 19.664062 27.59375 19.097656 27.59375 C 18.550781 27.59375 18.496094 27.585938 18.269531 27.457031 C 18.144531 27.378906 17.921875 27.183594 17.777344 27.027344 C 17.523438 26.734375 17.523438 26.734375 17.390625 26.820312 C 17.320312 26.867188 17.265625 26.925781 17.265625 26.945312 C 17.265625 27.003906 17.589844 27.394531 17.757812 27.539062 C 18.242188 27.949219 19.105469 28.097656 19.789062 27.886719 C 20.460938 27.683594 20.785156 27.230469 20.871094 26.410156 C 20.898438 26.160156 20.921875 25.128906 20.921875 24.121094 L 20.921875 22.292969 L 20.515625 22.292969 L 20.515625 23.074219 L 20.367188 22.867188 C 19.96875 22.3125 19.132812 22.046875 18.449219 22.265625 Z M 19.5625 22.628906 C 19.886719 22.738281 20.179688 23.015625 20.347656 23.355469 C 20.46875 23.613281 20.492188 23.707031 20.492188 24.109375 C 20.484375 24.628906 20.394531 24.898438 20.113281 25.226562 C 19.582031 25.835938 18.484375 25.851562 17.945312 25.253906 C 17.648438 24.914062 17.550781 24.644531 17.550781 24.109375 C 17.550781 23.585938 17.640625 23.316406 17.929688 22.984375 C 18.28125 22.582031 18.980469 22.429688 19.5625 22.628906 Z M 19.5625 22.628906 "/>
<path style=" stroke:none;fill-rule:nonzero;fill:rgb(0%,0%,0%);fill-opacity:1;" d="M 31.042969 22.28125 C 30.226562 22.574219 29.761719 23.3125 29.820312 24.226562 C 29.855469 24.777344 30.011719 25.15625 30.332031 25.484375 C 30.691406 25.851562 30.996094 25.992188 31.507812 26.023438 C 32.132812 26.050781 32.621094 25.832031 33.011719 25.335938 L 33.160156 25.144531 L 33.160156 25.980469 L 33.566406 25.980469 L 33.566406 22.292969 L 33.160156 22.292969 L 33.160156 23.136719 L 33.070312 22.984375 C 32.910156 22.726562 32.640625 22.492188 32.347656 22.351562 C 31.976562 22.179688 31.417969 22.148438 31.042969 22.28125 Z M 32.207031 22.628906 C 32.53125 22.738281 32.824219 23.015625 32.992188 23.355469 C 33.121094 23.613281 33.132812 23.707031 33.132812 24.136719 C 33.132812 24.566406 33.121094 24.652344 32.996094 24.878906 C 32.71875 25.417969 32.265625 25.6875 31.664062 25.6875 C 30.757812 25.6875 30.195312 25.070312 30.199219 24.078125 C 30.203125 23.414062 30.515625 22.890625 31.046875 22.644531 C 31.3125 22.527344 31.886719 22.515625 32.207031 22.628906 Z M 32.207031 22.628906 "/>
<path style=" stroke:none;fill-rule:nonzero;fill:rgb(0%,0%,0%);fill-opacity:1;" d="M 42.9375 22.234375 C 42.339844 22.402344 42.011719 22.859375 42.144531 23.351562 C 42.261719 23.777344 42.519531 23.976562 43.277344 24.21875 C 44.054688 24.464844 44.230469 24.609375 44.230469 24.992188 C 44.230469 25.488281 43.964844 25.699219 43.34375 25.699219 C 42.992188 25.699219 42.90625 25.679688 42.703125 25.5625 C 42.574219 25.484375 42.40625 25.332031 42.335938 25.21875 C 42.1875 24.992188 42.125 24.964844 41.96875 25.078125 C 41.875 25.144531 41.878906 25.15625 42.011719 25.355469 C 42.355469 25.882812 43.039062 26.15625 43.703125 26.03125 C 44.464844 25.882812 44.84375 25.21875 44.519531 24.59375 C 44.371094 24.304688 44.011719 24.085938 43.417969 23.902344 C 42.65625 23.664062 42.503906 23.546875 42.503906 23.171875 C 42.503906 22.878906 42.605469 22.714844 42.839844 22.621094 C 43.214844 22.460938 43.660156 22.566406 43.960938 22.886719 C 44.113281 23.054688 44.148438 23.066406 44.261719 23.019531 C 44.328125 22.984375 44.382812 22.9375 44.382812 22.90625 C 44.382812 22.8125 44.011719 22.441406 43.820312 22.335938 C 43.601562 22.226562 43.160156 22.171875 42.9375 22.234375 Z M 42.9375 22.234375 "/>
<path style=" stroke:none;fill-rule:nonzero;fill:rgb(0%,0%,0%);fill-opacity:1;" d="M 47.851562 22.28125 C 46.96875 22.597656 46.429688 23.550781 46.617188 24.472656 C 46.742188 25.113281 47.121094 25.605469 47.679688 25.875 C 47.925781 25.992188 48.023438 26.007812 48.496094 26.007812 C 48.972656 26.007812 49.058594 25.992188 49.308594 25.867188 C 49.460938 25.792969 49.664062 25.652344 49.753906 25.554688 L 49.917969 25.386719 L 49.796875 25.269531 L 49.667969 25.144531 L 49.5 25.316406 C 49.242188 25.574219 48.949219 25.6875 48.492188 25.6875 C 48.164062 25.695312 48.054688 25.667969 47.820312 25.550781 C 47.273438 25.285156 47 24.785156 47.003906 24.085938 C 47.003906 23.449219 47.296875 22.933594 47.796875 22.679688 C 48.015625 22.566406 48.128906 22.546875 48.464844 22.546875 C 48.917969 22.546875 49.160156 22.628906 49.445312 22.875 C 49.613281 23.019531 49.613281 23.019531 49.734375 22.917969 L 49.863281 22.820312 L 49.675781 22.632812 C 49.382812 22.351562 49.054688 22.226562 48.546875 22.203125 C 48.222656 22.1875 48.050781 22.210938 47.851562 22.28125 Z M 47.851562 22.28125 "/>
<path style=" stroke:none;fill-rule:nonzero;fill:rgb(0%,0%,0%);fill-opacity:1;" d="M 58.71875 22.261719 C 58.171875 22.441406 57.671875 22.902344 57.480469 23.410156 C 57.398438 23.625 57.367188 23.8125 57.367188 24.109375 C 57.367188 24.632812 57.503906 25.007812 57.824219 25.371094 C 58.234375 25.828125 58.679688 26.03125 59.261719 26.03125 C 60.101562 26.03125 60.796875 25.523438 61.058594 24.710938 C 61.207031 24.273438 61.160156 23.683594 60.953125 23.261719 C 60.632812 22.605469 60.058594 22.234375 59.335938 22.203125 C 59.089844 22.195312 58.851562 22.21875 58.71875 22.261719 Z M 59.945312 22.675781 C 60.214844 22.808594 60.484375 23.089844 60.632812 23.394531 C 60.734375 23.609375 60.753906 23.726562 60.753906 24.109375 C 60.753906 24.628906 60.667969 24.898438 60.382812 25.226562 C 59.972656 25.695312 59.171875 25.84375 58.585938 25.550781 C 58.265625 25.390625 58.027344 25.144531 57.871094 24.808594 C 57.789062 24.621094 57.765625 24.46875 57.765625 24.105469 C 57.765625 23.691406 57.777344 23.609375 57.914062 23.34375 C 58.078125 23.019531 58.417969 22.710938 58.722656 22.609375 C 58.984375 22.515625 59.714844 22.558594 59.945312 22.675781 Z M 59.945312 22.675781 "/>
<path style=" stroke:none;fill-rule:nonzero;fill:rgb(0%,0%,0%);fill-opacity:1;" d="M 64.457031 22.261719 C 63.90625 22.441406 63.414062 22.902344 63.21875 23.410156 C 63.058594 23.820312 63.058594 24.40625 63.222656 24.828125 C 63.394531 25.285156 63.894531 25.769531 64.335938 25.917969 C 65.316406 26.253906 66.289062 25.84375 66.722656 24.910156 C 66.839844 24.660156 66.851562 24.554688 66.851562 24.109375 C 66.851562 23.632812 66.84375 23.574219 66.691406 23.261719 C 66.371094 22.605469 65.796875 22.234375 65.078125 22.203125 C 64.828125 22.195312 64.589844 22.21875 64.457031 22.261719 Z M 65.640625 22.644531 C 65.933594 22.785156 66.203125 23.039062 66.359375 23.335938 C 66.484375 23.574219 66.5 23.65625 66.5 24.109375 C 66.5 24.566406 66.484375 24.648438 66.359375 24.878906 C 66.078125 25.417969 65.628906 25.6875 65.015625 25.6875 C 64.707031 25.6875 64.597656 25.664062 64.320312 25.523438 C 63.769531 25.253906 63.507812 24.792969 63.507812 24.109375 C 63.507812 23.777344 63.527344 23.648438 63.632812 23.417969 C 63.902344 22.828125 64.355469 22.546875 65.023438 22.546875 C 65.308594 22.546875 65.492188 22.578125 65.640625 22.644531 Z M 65.640625 22.644531 "/>
<path style=" stroke:none;fill-rule:nonzero;fill:rgb(0%,0%,0%);fill-opacity:1;" d="M 14.523438 24.136719 L 14.523438 25.980469 L 14.929688 25.980469 L 14.929688 22.292969 L 14.523438 22.292969 Z M 14.523438 24.136719 "/>
<path style=" stroke:none;fill-rule:nonzero;fill:rgb(0%,0%,0%);fill-opacity:1;" d="M 23.410156 24.136719 L 23.410156 25.980469 L 23.765625 25.980469 L 23.765625 22.292969 L 23.410156 22.292969 Z M 23.410156 24.136719 "/>
</g>
</svg>
