<?xml version="1.0" encoding="iso-8859-1"?>
<!-- Uploaded to: SVG Repo, www.svgrepo.com, Generator: SVG Repo Mixer Tools -->
<svg fill="#000000" version="1.1" id="Layer_1" xmlns="http://www.w3.org/2000/svg" xmlns:xlink="http://www.w3.org/1999/xlink" 
	 viewBox="0 0 512 512" xml:space="preserve">
<g>
	<g>
		<g>
			<path d="M503.467,371.2h-25.6V106.667c0-14.114-11.486-25.6-25.6-25.6H59.733c-14.114,0-25.6,11.486-25.6,25.6V371.2h-25.6
				c-4.71,0-8.533,3.823-8.533,8.533v25.6c0,14.114,11.486,25.6,25.6,25.6h460.8c14.114,0,25.6-11.486,25.6-25.6v-25.6
				C512,375.023,508.177,371.2,503.467,371.2z M68.267,337.067h25.6V200.533h51.2v-51.2h68.267v76.8h34.133v-51.2h51.2V115.2h68.267
				v34.133h51.2v187.733h25.6c4.71,0,8.533,3.823,8.533,8.533c0,4.71-3.823,8.533-8.533,8.533h-25.6h-51.2h-17.067h-34.133h-17.067
				h-34.133h-17.067h-34.133h-17.067h-34.133h-17.067h-51.2h-25.6c-4.71,0-8.533-3.823-8.533-8.533
				C59.733,340.89,63.556,337.067,68.267,337.067z M494.933,405.333c0,4.702-3.831,8.533-8.533,8.533H25.6
				c-4.702,0-8.533-3.831-8.533-8.533v-17.067h25.6H179.2v8.533c0,4.71,3.823,8.533,8.533,8.533h136.533
				c4.71,0,8.533-3.823,8.533-8.533v-8.533h136.533h25.6V405.333z"/>
			<rect x="213.333" y="243.2" width="34.133" height="93.867"/>
			<polygon points="196.267,226.133 196.267,166.4 162.133,166.4 162.133,200.533 162.133,337.067 196.267,337.067 			"/>
			<polygon points="298.667,192 264.533,192 264.533,226.133 264.533,337.067 298.667,337.067 			"/>
			<rect x="110.933" y="217.6" width="34.133" height="119.467"/>
			<rect x="366.933" y="166.4" width="34.133" height="170.667"/>
		</g>
	</g>
</g>
</svg>