<svg width="204" height="54" viewBox="0 0 204 54" fill="none" xmlns="http://www.w3.org/2000/svg">
<path d="M29.9057 15.6871C29.9057 19.6158 28.4082 23.1915 25.9574 25.8665L25.9524 25.8715C25.7724 26.049 25.5963 26.2316 25.4243 26.4182L25.4193 26.4232C22.9695 29.0982 21.472 32.6739 21.472 36.6026C21.472 37.8685 21.6271 39.0981 21.9202 40.2721C17.7198 38.5736 14.4658 34.9999 13.1774 30.5779C12.7862 29.2344 12.5762 27.8122 12.5762 26.3405C12.5762 22.5752 13.9516 19.1337 16.2223 16.5C16.2553 16.4617 16.2894 16.4234 16.3224 16.3851L25.8474 5.38965C27.4349 7.08521 28.6353 9.15296 29.3035 11.4497C29.3095 11.4668 29.3135 11.484 29.3185 11.5001C29.7006 12.8295 29.9057 14.2336 29.9057 15.6871Z" fill="#0DC380"/>
<path d="M23.9929 38.2111C23.9929 34.2823 25.4904 30.7066 27.9412 28.0317L27.9462 28.0266C28.1262 27.8491 28.3023 27.6665 28.4743 27.4799L28.4794 27.4749C30.9291 24.7999 32.4266 21.2242 32.4266 17.2955C32.4266 16.0296 32.2716 14.8001 31.9785 13.626C36.1788 15.3246 39.4328 18.8982 40.7213 23.3202C41.1124 24.6637 41.3224 26.086 41.3224 27.5576C41.3224 31.3229 39.947 34.7645 37.6763 37.3981C37.6433 37.4364 37.6093 37.4747 37.5763 37.5131L28.0512 48.5085C26.4637 46.8129 25.2633 44.7452 24.5951 42.4484C24.5891 42.4313 24.5851 42.4142 24.5801 42.398C24.198 41.0686 23.9929 39.6645 23.9929 38.2111Z" fill="#0DC380"/>
<path d="M64.7735 40L53.7175 14.7087H58.8119L68.6755 37.5793H65.749L75.721 14.7087H80.4179L69.3982 40H64.7735ZM90.2753 40.2529C88.1316 40.2529 86.2528 39.8314 84.639 38.9883C83.0493 38.1212 81.8088 36.941 80.9176 35.4476C80.0504 33.9542 79.6169 32.256 79.6169 30.3532C79.6169 28.4262 80.0384 26.7281 80.8814 25.2588C81.7486 23.7654 82.9288 22.5972 84.4222 21.7541C85.9397 20.9111 87.6619 20.4896 89.5889 20.4896C91.4676 20.4896 93.1417 20.899 94.611 21.718C96.0803 22.5369 97.2365 23.6931 98.0795 25.1865C98.9226 26.6799 99.3441 28.4383 99.3441 30.4616C99.3441 30.6543 99.332 30.871 99.308 31.1119C99.308 31.3528 99.2959 31.5816 99.2718 31.7984H83.1938V28.7996H96.8872L95.1168 29.739C95.1409 28.631 94.9121 27.6554 94.4303 26.8124C93.9486 25.9693 93.2862 25.307 92.4432 24.8252C91.6242 24.3435 90.6728 24.1026 89.5889 24.1026C88.4809 24.1026 87.5053 24.3435 86.6623 24.8252C85.8433 25.307 85.193 25.9814 84.7113 26.8485C84.2536 27.6916 84.0248 28.6912 84.0248 29.8473V30.57C84.0248 31.7261 84.2897 32.7498 84.8196 33.641C85.3496 34.5323 86.0963 35.2187 87.0597 35.7005C88.0232 36.1822 89.1312 36.4231 90.3837 36.4231C91.4676 36.4231 92.4432 36.2545 93.3103 35.9173C94.1774 35.58 94.9482 35.0501 95.6227 34.3275L98.0434 37.1096C97.1763 38.1212 96.0803 38.904 94.7555 39.458C93.4548 39.988 91.9614 40.2529 90.2753 40.2529ZM103.682 40V20.7063H107.982V26.0175L107.476 24.4639C108.054 23.1632 108.957 22.1756 110.186 21.5012C111.438 20.8268 112.992 20.4896 114.847 20.4896V24.7891C114.654 24.7409 114.473 24.7168 114.305 24.7168C114.136 24.6927 113.967 24.6807 113.799 24.6807C112.089 24.6807 110.728 25.1865 109.716 26.1982C108.704 27.1857 108.199 28.6671 108.199 30.6422V40H103.682ZM126.667 40.2529C124.812 40.2529 123.138 39.8434 121.645 39.0245C120.175 38.1814 119.019 37.0253 118.176 35.556C117.333 34.0866 116.912 32.3524 116.912 30.3532C116.912 28.354 117.333 26.6197 118.176 25.1504C119.019 23.6811 120.175 22.5369 121.645 21.718C123.138 20.899 124.812 20.4896 126.667 20.4896C128.281 20.4896 129.726 20.8509 131.003 21.5735C132.279 22.272 133.291 23.3439 134.038 24.7891C134.784 26.2343 135.158 28.089 135.158 30.3532C135.158 32.5933 134.796 34.448 134.074 35.9173C133.351 37.3625 132.351 38.4464 131.075 39.169C129.798 39.8916 128.329 40.2529 126.667 40.2529ZM127.209 36.387C128.293 36.387 129.256 36.1461 130.099 35.6643C130.966 35.1826 131.653 34.4841 132.159 33.5688C132.689 32.6535 132.954 31.5816 132.954 30.3532C132.954 29.1006 132.689 28.0288 132.159 27.1376C131.653 26.2223 130.966 25.5237 130.099 25.042C129.256 24.5603 128.293 24.3194 127.209 24.3194C126.125 24.3194 125.149 24.5603 124.282 25.042C123.439 25.5237 122.753 26.2223 122.223 27.1376C121.717 28.0288 121.464 29.1006 121.464 30.3532C121.464 31.5816 121.717 32.6535 122.223 33.5688C122.753 34.4841 123.439 35.1826 124.282 35.6643C125.149 36.1461 126.125 36.387 127.209 36.387ZM133.062 40V35.4476L133.243 30.317L132.881 25.1865V13.1912H137.362V40H133.062ZM152.375 40.2529C150.231 40.2529 148.352 39.8314 146.738 38.9883C145.148 38.1212 143.908 36.941 143.017 35.4476C142.15 33.9542 141.716 32.256 141.716 30.3532C141.716 28.4262 142.138 26.7281 142.981 25.2588C143.848 23.7654 145.028 22.5972 146.521 21.7541C148.039 20.9111 149.761 20.4896 151.688 20.4896C153.567 20.4896 155.241 20.899 156.71 21.718C158.18 22.5369 159.336 23.6931 160.179 25.1865C161.022 26.6799 161.443 28.4383 161.443 30.4616C161.443 30.6543 161.431 30.871 161.407 31.1119C161.407 31.3528 161.395 31.5816 161.371 31.7984H145.293V28.7996H158.986L157.216 29.739C157.24 28.631 157.011 27.6554 156.53 26.8124C156.048 25.9693 155.385 25.307 154.542 24.8252C153.723 24.3435 152.772 24.1026 151.688 24.1026C150.58 24.1026 149.605 24.3435 148.762 24.8252C147.943 25.307 147.292 25.9814 146.81 26.8485C146.353 27.6916 146.124 28.6912 146.124 29.8473V30.57C146.124 31.7261 146.389 32.7498 146.919 33.641C147.449 34.5323 148.195 35.2187 149.159 35.7005C150.122 36.1822 151.23 36.4231 152.483 36.4231C153.567 36.4231 154.542 36.2545 155.41 35.9173C156.277 35.58 157.047 35.0501 157.722 34.3275L160.143 37.1096C159.275 38.1212 158.18 38.904 156.855 39.458C155.554 39.988 154.061 40.2529 152.375 40.2529ZM176.729 20.4896C178.271 20.4896 179.644 20.7906 180.848 21.3928C182.076 21.995 183.04 22.9223 183.738 24.1749C184.437 25.4033 184.786 26.993 184.786 28.9441V40H180.27V29.5222C180.27 27.812 179.86 26.5354 179.041 25.6923C178.246 24.8493 177.126 24.4278 175.681 24.4278C174.621 24.4278 173.682 24.6446 172.863 25.0781C172.044 25.5117 171.406 26.162 170.948 27.0292C170.515 27.8722 170.298 28.9441 170.298 30.2448V40H165.781V20.7063H170.081V25.9091L169.322 24.3194C169.997 23.091 170.972 22.1516 172.249 21.5012C173.55 20.8268 175.043 20.4896 176.729 20.4896ZM197.778 40.2529C195.658 40.2529 194.02 39.711 192.864 38.627C191.708 37.519 191.13 35.8932 191.13 33.7494V16.4429H195.646V33.641C195.646 34.5563 195.875 35.2669 196.332 35.7727C196.814 36.2786 197.476 36.5315 198.32 36.5315C199.331 36.5315 200.174 36.2665 200.849 35.7366L202.113 38.9522C201.583 39.3858 200.933 39.711 200.162 39.9277C199.391 40.1445 198.597 40.2529 197.778 40.2529ZM187.95 24.4639V20.8509H200.813V24.4639H187.95Z" fill="white"/>
</svg>
